<?xml version="1.0" encoding="UTF-8"?><svg id="Layer_1" xmlns="http://www.w3.org/2000/svg" viewBox="0 0 123.2988 122.3536"><defs><style>.cls-1{fill:#1e56a0;}.cls-2{fill:#f25c05;}</style></defs><path class="cls-2" d="M65.0594,78.9358l-.0313-10.0674,16.7262-10.3242c2.8216-1.6513,4.7169-4.5061,4.8952-7.7828.2102-3.8636-2.0417-7.2141-5.6064-8.6093-1.6853-.6474-3.1388-.9875-5.245-.4079l-4.9681,1.6232.0012-9.1916,7.2025-2.4841c1.619-.5584,3.1217-1.225,4.1527-2.6333.6086-.9446,1.158-1.934,1.3-3.1231.291-2.4377-1.0771-4.8794-3.1804-6.1265l-1.607-.9528-3.0542-1.7948-.8876-.5129-3.1486-1.816-4.025-2.3399-2.5404-1.4767.0079-9.7197c1.1015.5697,1.9941,1.0902,3.0165,1.6922l15.0457,8.8594c1.8806,1.1074,3.7015,2.1307,5.1515,3.7542,1.3917,1.5583,2.2772,2.9212,3.0063,4.9057,2.5981,7.0717-.6769,14.4938-8.1948,16.384,1.4256.408,2.9073.756,4.237,1.4894,2.7538,1.5188,4.6534,3.308,6.1244,6.0617,1.2605,2.3597,1.9844,5.373,1.7345,8.0289-.0563.5989-.0764,1.1995-.1931,1.7911-.2765,1.4011-.6278,2.6864-1.2145,4.0112-1.5386,3.4744-4.1047,6.3039-7.3879,8.2481l-21.3173,12.5137Z"/><path class="cls-1" d="M48.3398,16.931l-.0094,9.4351c-.0002.1557-.4571.3578-.6173.3263l-.0118-9.2942c-.2837.1182-.5593.2684-.8932.473l-.0054,9.3537-2.4699,1.1638-.0267-9.0295-8.3052,4.8863-.0057,45.4352-7.9146-4.4213-.0024-44.8722,19.7852-11.5594,11.3438-6.5794,3.8719-2.2483.0566,5.4565-.0065,23.1414-5.7915-2.8476-.0212-14.0545-1.7608.9768-.007,12.1799c-.2143-.0635-.4596-.1953-.6165-.3412l-.011-11.4177-2.5385,1.456-.0016,9.8536c0,.2148-.4378.397-.6269.3198l-.0276-9.7518-3.3866,1.9598Z"/><polygon class="cls-1" points="59.1197 82.3591 57.3442 81.3713 57.3338 67.7682 63.1212 65.8978 63.1365 80.0342 59.1197 82.3591"/><polygon class="cls-1" points="46.7991 75.5767 44.3161 74.2135 44.3286 66.0834 46.806 66.8867 46.7991 75.5767"/><rect class="cls-1" x="54.9262" y="68.4363" width=".6271" height="11.8923"/><rect class="cls-1" x="47.0273" y="73.2052" width="10.0674" height=".6516" transform="translate(-21.4919 125.5612) rotate(-89.9759)"/><path class="cls-1" d="M48.3326,76.3563l-.6265-.3182.0023-8.8259c.1632-.0283.6321.1252.632.2824l-.0078,8.8617Z"/><path class="cls-1" d="M68.2306,63.4656l-14.6416,4.7066-14.9524-4.7015-.0023-31.4356,14.9757-7.1826,10.3075,5.0617,4.3115,2.1264.0016,31.4251ZM40.4334,61.2912l11.7957-2.9477-.0034-28.3823-11.6951,4.985-.0972,26.345ZM60.8202,59.764l-.0032-27.3556-5.7703-2.4231.0042,28.3705,5.7693,1.4083ZM66.7814,52.1765l.0034-10.7559-4.2125-1.2158-.012,11.0451,4.2211.9265Z"/><rect class="cls-1" x="32.9412" y="46.017" width="25.7468" height=".5278" transform="translate(-.484 92.0775) rotate(-89.9778)"/><polygon class="cls-1" points="65.9574 47.5686 64.7397 50.1522 63.5069 46.9598 65.9574 47.5686"/><polygon class="cls-2" points="65.8708 45.5525 63.531 45.0315 64.7402 42.6177 65.8708 45.5525"/><path class="cls-1" d="M26.0249,86.6036v12.9248c0,7.2666-3.1167,10.9004-9.3501,10.9004h-5.5996c-6.2339,0-9.3501-3.6338-9.3501-10.9004v-2.0244c0-6.2334,3.6333-9.3506,10.8999-9.3506h1.0249v6.2256h-1.0249c-3.1167,0-4.6748,1.042-4.6748,3.125v2.0244c0,3.1172,1.041,4.6758,3.125,4.6758h5.5996c2.0835,0,3.125-1.5586,3.125-4.6758v-12.9248h6.2251ZM14.7998,84.504c-.8667,0-1.5996-.2998-2.1997-.9004-.6167-.6162-.9253-1.3584-.9253-2.2246,0-.8506.3086-1.5752.9253-2.1748.6001-.6172,1.333-.9258,2.1997-.9258s1.6001.3086,2.2002.9258c.6001.5996.8999,1.3242.8999,2.1748,0,.8662-.2998,1.6084-.8999,2.2246-.6001.6006-1.3335.9004-2.2002.9004Z"/><path class="cls-1" d="M28.6504,80.1534h6.2246v25.1504h-6.2246v-25.1504Z"/><path class="cls-1" d="M58.4751,105.3038h-5.6499c-.2002,2.2168-1.1172,4.1416-2.75,5.7754-1.8838,1.8828-4.1504,2.8242-6.8003,2.8242-2.6665,0-4.9336-.9414-6.7998-2.8242l-.125-.125-.1001-.1006,4.5498-4.2744.0752.0996c.6665.666,1.4663,1,2.3999,1,.9331,0,1.7334-.334,2.3999-1,.6504-.667.9751-1.4668.9751-2.4004v-17.6494h6.2251v12.4502h5.6001v6.2246Z"/><path class="cls-1" d="M72.624,86.6036v7.7998c0,7.2676-3.1172,10.9004-9.3496,10.9004h-4.9995v-6.2246h4.9995c2.084,0,3.125-1.5586,3.125-4.6758v-7.7998h6.2246ZM68.2998,107.0538c.8652,0,1.5996.2998,2.1992.9004.5996.6162.9004,1.3574.9004,2.2246,0,.8662-.3008,1.5996-.9004,2.2002-.5996.5996-1.334.8994-2.1992.8994-.8672,0-1.5996-.2998-2.2012-.8994-.6152-.6006-.9238-1.334-.9238-2.2002,0-.8672.3086-1.6084.9238-2.2246.6016-.6006,1.334-.9004,2.2012-.9004Z"/><path class="cls-2" d="M93.9492,80.1534v14.25c0,6.584-2.5752,10.1836-7.7246,10.8008v.0996h-11.3252v-6.2246h3.5498v-18.9258h6.2246v18.9004c2.0332-.0332,3.0508-1.583,3.0508-4.6504v-14.25h6.2246Z"/><path class="cls-2" d="M107.4238,99.0792v6.2246h-2.3252c-6.2334,0-9.3496-3.6328-9.3496-10.9004v-14.25h6.2246v14.25c0,3.1172,1.042,4.6758,3.125,4.6758h2.3252Z"/><path class="cls-2" d="M121.5996,86.6036v7.7998c0,7.2676-3.1172,10.9004-9.3506,10.9004h-5v-6.2246h5c2.084,0,3.125-1.5586,3.125-4.6758v-7.7998h6.2256ZM117.2744,107.0538c.8662,0,1.5996.2998,2.2002.9004.5996.6162.8994,1.3574.8994,2.2246,0,.8662-.2998,1.5996-.8994,2.2002-.6006.5996-1.334.8994-2.2002.8994-.8672,0-1.5996-.2998-2.2002-.8994-.6162-.6006-.9248-1.334-.9248-2.2002,0-.8672.3086-1.6084.9248-2.2246.6006-.6006,1.333-.9004,2.2002-.9004Z"/></svg>